PathFileType	4	(X/Y/Z)	C:\Users\italobelli\Desktop\GitHub\PTbot_officialCBL\Personal_Results\ABD21_noisy1.trc
DataRate	CameraRate	NumFrames	NumMarkers	Units	OrigDataRate	OrigDataStartFrame	OrigNumFrames
106.533333	106.533333	38	9	m	106.533333	101	800
Frame#	Time		gu		centelbow		EpL		centpxt8		centijc7		ij		ts		aa		ai
			X1	Y1	Z1	X2	Y2	Z2	X3	Y3	Z3	X4	Y4	Z4	X5	Y5	Z5	X6	Y6	Z6	X7	Y7	Z7	X8	Y8	Z8	X9	Y9	Z9

101	0.93867	-0.089775	-0.018638	0.15766	-0.12869	-0.25538	0.19591	-0.13239	-0.2458	0.22657	-0.046816	-0.15316	-0.008669	-0.046816	0.031938	-0.008669	0	0	0	-0.13183	0.022957	0.040897	-0.12065	0.015662	0.15948	-0.14732	-0.089404	0.040433
102	0.94806	-0.089817	-0.018603	0.1575	-0.12882	-0.25518	0.19643	-0.1326	-0.24551	0.22704	-0.046816	-0.15316	-0.008669	-0.046816	0.031938	-0.008669	0	0	0	-0.13182	0.022973	0.040775	-0.1207	0.015677	0.15936	-0.14734	-0.089395	0.040333
103	0.95745	-0.089856	-0.018568	0.15734	-0.12895	-0.25497	0.19695	-0.1328	-0.24522	0.22752	-0.046816	-0.15316	-0.008669	-0.046816	0.031938	-0.008669	0	0	0	-0.1318	0.022988	0.040653	-0.12075	0.015692	0.15924	-0.14735	-0.089387	0.040236
104	0.96683	-0.089892	-0.018532	0.15719	-0.12906	-0.25477	0.19749	-0.13299	-0.24493	0.22801	-0.046816	-0.15316	-0.008669	-0.046816	0.031938	-0.008669	0	0	0	-0.13178	0.023003	0.040529	-0.1208	0.015709	0.15911	-0.14736	-0.08938	0.040143
105	0.97622	-0.089925	-0.018496	0.15703	-0.12918	-0.25456	0.19805	-0.13318	-0.24464	0.22851	-0.046816	-0.15316	-0.008669	-0.046816	0.031938	-0.008669	0	0	0	-0.13176	0.023018	0.040404	-0.12085	0.015727	0.15898	-0.14737	-0.089376	0.040054
106	0.98561	-0.089955	-0.018458	0.15688	-0.12929	-0.25435	0.19861	-0.13336	-0.24435	0.22901	-0.046816	-0.15316	-0.008669	-0.046816	0.031938	-0.008669	0	0	0	-0.13174	0.023032	0.040278	-0.1209	0.015746	0.15885	-0.14737	-0.089372	0.039968
107	0.99499	-0.089981	-0.018421	0.15672	-0.12939	-0.25415	0.19918	-0.13353	-0.24405	0.22953	-0.046816	-0.15316	-0.008669	-0.046816	0.031938	-0.008669	0	0	0	-0.13171	0.023047	0.040152	-0.12094	0.015766	0.15872	-0.14738	-0.089371	0.039887
108	1.0044	-0.090003	-0.018378	0.15657	-0.12948	-0.25394	0.19977	-0.1337	-0.24376	0.23006	-0.046816	-0.15316	-0.008669	-0.046816	0.031938	-0.008669	0	0	0	-0.13169	0.02306	0.040022	-0.12099	0.01579	0.15859	-0.14738	-0.089372	0.03981
109	1.0138	-0.090024	-0.018309	0.15641	-0.12956	-0.25368	0.20045	-0.13385	-0.24341	0.23067	-0.046816	-0.15316	-0.008669	-0.046816	0.031938	-0.008669	0	0	0	-0.13165	0.02307	0.039875	-0.12104	0.015838	0.15844	-0.14735	-0.089375	0.039743
110	1.0232	-0.090045	-0.018208	0.15625	-0.12962	-0.25338	0.20121	-0.13399	-0.243	0.23137	-0.046816	-0.15316	-0.008669	-0.046816	0.031938	-0.008669	0	0	0	-0.13161	0.023077	0.039708	-0.12109	0.015912	0.15828	-0.1473	-0.089382	0.039686
111	1.0325	-0.090064	-0.018077	0.15608	-0.12967	-0.25302	0.20206	-0.13411	-0.24253	0.23214	-0.046816	-0.15316	-0.008669	-0.046816	0.031938	-0.008669	0	0	0	-0.13155	0.023079	0.039522	-0.12114	0.016013	0.15811	-0.14722	-0.089392	0.03964
112	1.0419	-0.090082	-0.017917	0.15592	-0.12969	-0.25262	0.203	-0.13423	-0.24201	0.233	-0.046816	-0.15316	-0.008669	-0.046816	0.031938	-0.008669	0	0	0	-0.13148	0.023078	0.039319	-0.12119	0.016138	0.15792	-0.14711	-0.089404	0.039603
113	1.0513	-0.090099	-0.017727	0.15575	-0.1297	-0.25216	0.20401	-0.13433	-0.24143	0.23393	-0.046816	-0.15316	-0.008669	-0.046816	0.031938	-0.008669	0	0	0	-0.13141	0.023074	0.039098	-0.12124	0.016288	0.15773	-0.14698	-0.08942	0.039576
114	1.0607	-0.090115	-0.01751	0.15558	-0.12969	-0.25166	0.20511	-0.13442	-0.24079	0.23493	-0.046816	-0.15316	-0.008669	-0.046816	0.031938	-0.008669	0	0	0	-0.13132	0.023066	0.038861	-0.12129	0.016461	0.15752	-0.14683	-0.089438	0.039558
115	1.0701	-0.09013	-0.017266	0.1554	-0.12967	-0.25111	0.20628	-0.13449	-0.2401	0.236	-0.046816	-0.15316	-0.008669	-0.046816	0.031938	-0.008669	0	0	0	-0.13122	0.023054	0.038608	-0.12134	0.016657	0.1573	-0.14665	-0.089459	0.03955
116	1.0795	-0.090144	-0.016996	0.15523	-0.12963	-0.25051	0.20753	-0.13456	-0.23935	0.23714	-0.046816	-0.15316	-0.008669	-0.046816	0.031938	-0.008669	0	0	0	-0.13112	0.023039	0.038341	-0.12139	0.016876	0.15707	-0.14645	-0.089482	0.039551
117	1.0889	-0.090157	-0.0167	0.15505	-0.12958	-0.24987	0.20884	-0.13461	-0.23855	0.23835	-0.046816	-0.15316	-0.008669	-0.046816	0.031938	-0.008669	0	0	0	-0.13101	0.023021	0.03806	-0.12144	0.017115	0.15683	-0.14623	-0.089508	0.039562
118	1.0982	-0.090169	-0.01638	0.15487	-0.12951	-0.24918	0.21023	-0.13465	-0.2377	0.23962	-0.046816	-0.15316	-0.008669	-0.046816	0.031938	-0.008669	0	0	0	-0.13089	0.022999	0.037767	-0.12149	0.017375	0.15658	-0.14599	-0.089537	0.039582
119	1.1076	-0.090181	-0.016036	0.15469	-0.12942	-0.24844	0.21168	-0.13468	-0.2368	0.24095	-0.046816	-0.15316	-0.008669	-0.046816	0.031938	-0.008669	0	0	0	-0.13077	0.022974	0.037462	-0.12155	0.017655	0.15633	-0.14573	-0.089567	0.03961
120	1.117	-0.090191	-0.015669	0.1545	-0.12932	-0.24767	0.21319	-0.1347	-0.23584	0.24233	-0.046816	-0.15316	-0.008669	-0.046816	0.031938	-0.008669	0	0	0	-0.13064	0.022945	0.037145	-0.1216	0.017953	0.15606	-0.14546	-0.0896	0.039648
121	1.1264	-0.090201	-0.01528	0.15432	-0.12921	-0.24684	0.21476	-0.1347	-0.23484	0.24377	-0.046816	-0.15316	-0.008669	-0.046816	0.031938	-0.008669	0	0	0	-0.1305	0.022913	0.036819	-0.12165	0.01827	0.15578	-0.14517	-0.089635	0.039694
122	1.1358	-0.09021	-0.01487	0.15413	-0.12909	-0.24598	0.21638	-0.1347	-0.23379	0.24526	-0.046816	-0.15316	-0.008669	-0.046816	0.031938	-0.008669	0	0	0	-0.13036	0.022879	0.036483	-0.1217	0.018604	0.1555	-0.14486	-0.089672	0.039749
123	1.1452	-0.090218	-0.01444	0.15394	-0.12895	-0.24507	0.21806	-0.13469	-0.23269	0.2468	-0.046816	-0.15316	-0.008669	-0.046816	0.031938	-0.008669	0	0	0	-0.13021	0.022841	0.036139	-0.12175	0.018955	0.15521	-0.14453	-0.089711	0.039812
124	1.1546	-0.090225	-0.01399	0.15375	-0.1288	-0.24413	0.2198	-0.13466	-0.23154	0.24838	-0.046816	-0.15316	-0.008669	-0.046816	0.031938	-0.008669	0	0	0	-0.13006	0.0228	0.035787	-0.12181	0.019322	0.15491	-0.1442	-0.089752	0.039883
125	1.164	-0.090232	-0.013521	0.15356	-0.12863	-0.24314	0.22157	-0.13463	-0.23034	0.25001	-0.046816	-0.15316	-0.008669	-0.046816	0.031938	-0.008669	0	0	0	-0.1299	0.022756	0.035428	-0.12186	0.019703	0.15461	-0.14385	-0.089794	0.039963
126	1.1733	-0.090238	-0.013034	0.15336	-0.12846	-0.24211	0.2234	-0.13459	-0.2291	0.25168	-0.046816	-0.15316	-0.008669	-0.046816	0.031938	-0.008669	0	0	0	-0.12974	0.022709	0.035064	-0.12191	0.020099	0.1543	-0.14349	-0.089838	0.04005
127	1.1827	-0.090243	-0.01253	0.15317	-0.12827	-0.24104	0.22526	-0.13453	-0.22782	0.25339	-0.046816	-0.15316	-0.008669	-0.046816	0.031938	-0.008669	0	0	0	-0.12957	0.022659	0.034695	-0.12197	0.020509	0.15399	-0.14311	-0.089884	0.040146
128	1.1921	-0.090247	-0.01201	0.15297	-0.12807	-0.23994	0.22717	-0.13447	-0.22649	0.25513	-0.046816	-0.15316	-0.008669	-0.046816	0.031938	-0.008669	0	0	0	-0.12941	0.022606	0.034321	-0.12202	0.020931	0.15367	-0.14273	-0.089931	0.040249
129	1.2015	-0.090251	-0.011474	0.15278	-0.12787	-0.23879	0.22911	-0.1344	-0.22512	0.2569	-0.046816	-0.15316	-0.008669	-0.046816	0.031938	-0.008669	0	0	0	-0.12924	0.02255	0.033945	-0.12207	0.021366	0.15334	-0.14234	-0.08998	0.04036
130	1.2109	-0.090254	-0.010924	0.15258	-0.12765	-0.23761	0.23109	-0.13432	-0.22371	0.2587	-0.046816	-0.15316	-0.008669	-0.046816	0.031938	-0.008669	0	0	0	-0.12907	0.022492	0.033566	-0.12213	0.021812	0.15302	-0.14194	-0.090029	0.040478
131	1.2203	-0.090257	-0.01036	0.15238	-0.12742	-0.2364	0.2331	-0.13423	-0.22226	0.26053	-0.046816	-0.15316	-0.008669	-0.046816	0.031938	-0.008669	0	0	0	-0.1289	0.022431	0.033185	-0.12218	0.022268	0.15268	-0.14153	-0.09008	0.040604
132	1.2297	-0.090259	-0.009783	0.15218	-0.12718	-0.23514	0.23513	-0.13413	-0.22077	0.26239	-0.046816	-0.15316	-0.008669	-0.046816	0.031938	-0.008669	0	0	0	-0.12873	0.022367	0.032804	-0.12223	0.022734	0.15235	-0.14112	-0.090132	0.040736
133	1.239	-0.09026	-0.0091938	0.15198	-0.12693	-0.23386	0.23719	-0.13402	-0.21924	0.26426	-0.046816	-0.15316	-0.008669	-0.046816	0.031938	-0.008669	0	0	0	-0.12855	0.022301	0.032423	-0.12229	0.023208	0.15201	-0.1407	-0.090185	0.040876
134	1.2484	-0.090261	-0.0085934	0.15178	-0.12668	-0.23254	0.23928	-0.13391	-0.21767	0.26616	-0.046816	-0.15316	-0.008669	-0.046816	0.031938	-0.008669	0	0	0	-0.12838	0.022232	0.032043	-0.12234	0.023691	0.15167	-0.14028	-0.090239	0.041023
135	1.2578	-0.090261	-0.0079824	0.15158	-0.12642	-0.23118	0.24138	-0.13378	-0.21606	0.26807	-0.046816	-0.15316	-0.008669	-0.046816	0.031938	-0.008669	0	0	0	-0.12821	0.02216	0.031665	-0.1224	0.024182	0.15133	-0.13985	-0.090294	0.041177
136	1.2672	-0.090261	-0.0073618	0.15138	-0.12614	-0.22979	0.2435	-0.13365	-0.21442	0.26999	-0.046816	-0.15316	-0.008669	-0.046816	0.031938	-0.008669	0	0	0	-0.12804	0.022086	0.03129	-0.12245	0.024679	0.15099	-0.13943	-0.090349	0.041337
137	1.2766	-0.090261	-0.0067324	0.15118	-0.12586	-0.22838	0.24563	-0.13351	-0.21274	0.27193	-0.046816	-0.15316	-0.008669	-0.046816	0.031938	-0.008669	0	0	0	-0.12787	0.02201	0.030919	-0.12251	0.025182	0.15064	-0.139	-0.090406	0.041504
138	1.286	-0.090259	-0.006095	0.15097	-0.12558	-0.22692	0.24778	-0.13337	-0.21103	0.27387	-0.046816	-0.15316	-0.008669	-0.046816	0.031938	-0.008669	0	0	0	-0.1277	0.021931	0.030552	-0.12256	0.025689	0.1503	-0.13857	-0.090462	0.041677
